<?xml version="1.0" encoding="UTF-8"?>
<!DOCTYPE svg PUBLIC "-//W3C//DTD SVG 1.1//EN" "http://www.w3.org/Graphics/SVG/1.1/DTD/svg11.dtd">
<!-- Creator: CorelDRAW -->
<svg xmlns="http://www.w3.org/2000/svg" xml:space="preserve" width="43.9934mm" height="43.9934mm" shape-rendering="geometricPrecision" text-rendering="geometricPrecision" image-rendering="optimizeQuality" fill-rule="evenodd" clip-rule="evenodd"
viewBox="0 0 43.9934 43.9934"
 xmlns:xlink="http://www.w3.org/1999/xlink">
 <g id="Слой_x0020_1">
  <metadata id="CorelCorpID_0Corel-Layer"/>
  <path fill="white" stroke="black" stroke-width="0.0762" d="M21.9967 0.0381c12.1254,0 21.9586,9.8332 21.9586,21.9586 0,12.1254 -9.8332,21.9586 -21.9586,21.9586 -12.1254,0 -21.9586,-9.8332 -21.9586,-21.9586 0,-12.1254 9.8332,-21.9586 21.9586,-21.9586zm9.6089 7.4896c0.0388,0.0256 -23.3295,25.1171 -23.3577,25.0806 -2.2684,-2.9346 -3.6189,-6.616 -3.6189,-10.6116 0,-9.5904 7.7774,-17.3678 17.3678,-17.3678 3.5528,0 6.8488,1.0796 9.6088,2.8988zm3.6307 3.229c2.5687,3.0345 4.1282,6.9538 4.1282,11.24 0,9.5903 -7.7774,17.3677 -17.3677,17.3677 -3.6924,0 -7.1166,-1.1535 -9.9308,-3.1186 -0.0246,-0.0171 23.1508,-25.5121 23.1703,-25.4891z"/>
 </g>
</svg>
